<?xml version="1.0" encoding="utf-8"?>
<!-- Generator: Adobe Illustrator 16.0.0, SVG Export Plug-In . SVG Version: 6.00 Build 0)  -->
<!DOCTYPE svg PUBLIC "-//W3C//DTD SVG 1.1//EN" "http://www.w3.org/Graphics/SVG/1.1/DTD/svg11.dtd">
<svg version="1.1" id="圖層_1" xmlns="http://www.w3.org/2000/svg" xmlns:xlink="http://www.w3.org/1999/xlink" x="0px" y="0px"
	 width="900px" height="600px" viewBox="0 0 900 600" style="enable-background:new 0 0 900 600;" xml:space="preserve">
<style type="text/css">
<![CDATA[
	.st0{fill:#FFDE00;}
	.st1{fill:#DE2910;}
]]>
</style>
<rect x="0" class="st1" width="900" height="600"/>
<polygon class="st0" points="182.695,160.623 235.595,122.188 170.206,122.188 150,60 129.794,122.188 64.405,122.188 
	117.305,160.623 97.099,222.812 150,184.377 202.901,222.812 "/>
<polygon class="st0" points="308.643,67.523 329.884,62.634 309.826,54.104 311.74,32.392 297.429,48.833 277.371,40.304 
	288.585,58.994 274.276,75.435 295.516,70.545 306.73,89.235 "/>
<polygon class="st0" points="365.047,130.288 386.52,134.024 371.344,118.379 381.532,99.111 361.964,108.71 346.787,93.066 
	349.87,114.643 330.301,124.243 351.775,127.979 354.858,149.556 "/>
<polygon class="st0" points="371.018,213.148 388.181,199.712 366.399,200.494 358.924,180.02 352.936,200.977 331.154,201.758 
	349.236,213.929 343.247,234.887 360.41,221.452 378.492,233.623 "/>
<polygon class="st0" points="308.948,277.158 329.967,271.392 309.573,263.702 310.584,241.929 296.969,258.949 276.573,251.259 
	288.553,269.469 274.938,286.488 295.956,280.722 307.936,298.931 "/>
</svg>
