<?xml version="1.0" encoding="utf-8"?>
<!-- Generator: Adobe Illustrator 16.0.0, SVG Export Plug-In . SVG Version: 6.00 Build 0)  -->
<!DOCTYPE svg PUBLIC "-//W3C//DTD SVG 1.1//EN" "http://www.w3.org/Graphics/SVG/1.1/DTD/svg11.dtd">
<svg version="1.1" id="圖層_1" xmlns="http://www.w3.org/2000/svg" xmlns:xlink="http://www.w3.org/1999/xlink" x="0px" y="0px"
	 width="900px" height="600px" viewBox="0 0 900 600" style="enable-background:new 0 0 900 600;" xml:space="preserve">
<style type="text/css">
<![CDATA[
	.st0{fill:#FFFFFF;}
	.st1{fill:#CD2E3A;}
	.st2{fill:#0047A0;}
]]>
</style>
<rect x="0" class="st0" width="900" height="600"/>
<path d="M148.382,189.06l83.205-124.808 M179.583,209.861l83.205-124.808 M210.785,230.663l83.205-124.808"/>
<path d="M221.186,237.596l-20.801-13.867L283.59,98.921l20.801,13.867L221.186,237.596z M189.984,216.795l-20.801-13.867
	L252.388,78.12l20.801,13.867L189.984,216.795z M158.782,195.994l-20.801-13.867l83.205-124.808l20.801,13.867L158.782,195.994z"/>
<g>
	<rect x="640.63" y="382.84" transform="matrix(-0.5547 0.832 -0.832 -0.5547 1373.5151 55.5995)" width="62.5" height="24.999"/>
	
		<rect x="671.831" y="403.641" transform="matrix(-0.5547 0.8321 -0.8321 -0.5547 1439.3298 61.9714)" width="62.501" height="24.999"/>
	
		<rect x="703.034" y="424.442" transform="matrix(-0.5547 0.8321 -0.8321 -0.5547 1505.147 68.3484)" width="62.501" height="24.999"/>
	<rect x="623.296" y="476.445" transform="matrix(0.5547 -0.832 0.832 0.5547 -115.3588 762.3386)" width="62.5" height="24.999"/>
	
		<rect x="654.497" y="497.246" transform="matrix(0.5547 -0.8321 0.8321 0.5547 -118.7698 797.5699)" width="62.501" height="24.999"/>
	
		<rect x="592.093" y="455.644" transform="matrix(0.5547 -0.8321 0.8321 0.5547 -111.9431 727.1206)" width="62.501" height="24.999"/>
</g>
<circle class="st1" cx="450" cy="300" r="150"/>
<path class="st2" d="M325.193,216.795c-22.977,34.465-13.664,81.03,20.801,104.006C380.458,343.777,427.024,334.465,450,300
	c22.976-34.465,69.541-43.778,104.006-20.801c34.465,22.977,43.777,69.542,20.801,104.006
	c-45.952,68.93-139.083,87.556-208.012,41.603C297.865,378.854,279.24,285.724,325.193,216.795z"/>
<g>
	
		<rect x="114.984" y="460.844" transform="matrix(-0.5547 -0.8321 0.8321 -0.5547 -98.4782 893.9833)" width="150.001" height="25"/>
	<rect x="165.667" y="403.641" transform="matrix(0.5547 0.832 -0.832 0.5547 433.9365 21.4614)" width="62.501" height="25"/>
	<rect x="214.204" y="476.445" transform="matrix(-0.5547 -0.832 0.832 -0.5547 -25.2175 964.3937)" width="62.5" height="24.999"/>
	<rect x="239.888" y="356.742" transform="matrix(0.8321 -0.5547 0.5547 0.8321 -197.0987 212.5105)" width="24.999" height="150"/>
</g>
<g>
	<rect x="654.498" y="77.754" transform="matrix(0.5547 0.832 -0.832 0.5547 380.4565 -530.3853)" width="62.5" height="24.999"/>
	
		<rect x="592.093" y="119.357" transform="matrix(0.5547 0.8321 -0.8321 0.5547 387.2861 -459.9374)" width="62.5" height="24.999"/>
	<rect x="721.784" y="131.808" transform="matrix(0.832 -0.5547 0.5547 0.832 32.8788 434.7044)" width="25" height="62.5"/>
	
		<rect x="640.629" y="192.161" transform="matrix(-0.5547 -0.8321 0.8321 -0.5547 874.2833 877.224)" width="62.5" height="24.999"/>
	
		<rect x="603.814" y="134.958" transform="matrix(-0.5547 -0.8321 0.8321 -0.5547 932.6598 794.0594)" width="150" height="24.999"/>
</g>
</svg>
