<?xml version="1.0" encoding="utf-8"?>
<!-- Generator: Adobe Illustrator 16.0.0, SVG Export Plug-In . SVG Version: 6.00 Build 0)  -->
<!DOCTYPE svg PUBLIC "-//W3C//DTD SVG 1.1//EN" "http://www.w3.org/Graphics/SVG/1.1/DTD/svg11.dtd">
<svg version="1.1" id="圖層_1" xmlns="http://www.w3.org/2000/svg" xmlns:xlink="http://www.w3.org/1999/xlink" x="0px" y="0px"
	 width="900px" height="600px" viewBox="0 0 900 600" style="enable-background:new 0 0 900 600;" xml:space="preserve">
<style type="text/css">
<![CDATA[
	.st0{fill:#FFFFFF;}
	.st1{fill:#DE2910;}
]]>
</style>
<rect x="0" class="st1" width="900" height="600"/>
<g id="petal">
	<path class="st0" d="M449.964,299.914c-105.264-44.486-58.603-181.582,42.069-174.691c-20.366,10.467-23.317,29.998-11.688,48.09
		c13.024,20.256-1.198,52.849-18.806,60.767C432.606,247.104,426.813,281.83,449.964,299.914L449.964,299.914z"/>
	<path class="st1" d="M444.272,200.92l-5.92,9.293l-2.145-10.814l-10.678-2.759l9.624-5.39l-0.671-11l8.086,7.489l10.255-4.042
		l-4.61,10.009l7.002,8.505L444.272,200.92z"/>
	<path class="st1" d="M450.56,298.759c-12.731-6.534-22.996-20.155-27.469-36.431c-5.114-18.669-2.173-38.742,8.083-55.038
		l-2.207-1.394c-10.641,16.929-13.693,37.743-8.386,57.119c4.728,17.222,15.213,31.098,28.786,38.065L450.56,298.759z"/>
</g>
<g transform="rotate(72 450,300)">
	<g id="petal_1_">
		<path class="st0" d="M450.071,299.939c9.781-113.858,154.586-111.845,179.142-13.972c-16.248-16.135-35.735-12.907-49.349,3.746
			c-15.239,18.646-50.632,15.191-63.604,0.893C494.931,267.112,460.115,272.333,450.071,299.939z"/>
		<path class="st1" d="M542.46,263.935l-10.668-2.758l9.622-5.381l-0.675-11.008l8.1,7.488l10.254-4.038l-4.625,10.004l7.015,8.504
			l-10.944-1.292l-5.926,9.287L542.46,263.935z"/>
		<path class="st1" d="M451.353,300.149c2.281-14.127,12.063-28.099,26.16-37.382c16.176-10.634,36.175-14.038,54.842-9.32
			l0.644-2.531c-19.389-4.888-40.127-1.359-56.915,9.675c-14.918,9.818-24.875,24.079-27.306,39.141L451.353,300.149z"/>
	</g>
</g>
<g transform="rotate(144 450,300)">
	<g id="petal_2_">
		<path class="st0" d="M450.079,300.049c111.309-25.882,154.142,112.457,68.646,166.056c10.324-20.438,1.232-37.975-18.812-45.775
			c-22.442-8.731-30.094-43.46-20.504-60.216C495.163,332.569,479.439,301.07,450.079,300.049L450.079,300.049z"/>
		<path class="st1" d="M512.871,376.791l-0.673-10.998l8.091,7.488l10.261-4.045l-4.618,10.018l7.008,8.504l-10.943-1.307
			l-5.921,9.299l-2.153-10.807l-10.663-2.766L512.871,376.791z"/>
		<path class="st1" d="M450.276,301.333c14.141-2.196,30.451,2.789,43.637,13.328c15.111,12.098,24.53,30.066,25.811,49.277
			l2.605-0.17c-1.342-19.95-11.106-38.583-26.789-51.14c-13.948-11.153-30.587-16.216-45.663-13.874L450.276,301.333z"/>
	</g>
</g>
<g transform="rotate(216 450,300)">
	<g id="petal_3_">
		<path class="st0" d="M449.978,300.091c59.012,97.862-59.321,181.348-136.716,116.6c22.629,3.502,36.497-10.563,37.722-32.037
			c1.369-24.043,32.034-42.051,50.933-38.107C432.981,353.018,458.078,328.328,449.978,300.091L449.978,300.091z"/>
		<path class="st1" d="M396.396,383.524l10.252-4.039l-4.621,10.009l7.017,8.51l-10.954-1.297L392.166,406l-2.139-10.813
			l-10.674-2.757l9.614-5.388l-0.665-10.996L396.396,383.524z"/>
		<path class="st1" d="M448.818,300.675c6.458,12.77,6.757,29.822,0.809,45.619c-6.836,18.11-21.015,32.62-38.89,39.775l0.967,2.425
			c18.559-7.441,33.263-22.486,40.357-41.281c6.298-16.711,5.971-34.101-0.915-47.715L448.818,300.675z"/>
	</g>
</g>
<g transform="rotate(288 450,300)">
	<g id="petal_4_">
		<path class="st0" d="M449.906,300.007c-74.837,86.364-190.804-0.378-153.141-93.993c3.661,22.604,21.324,31.446,42.125,25.976
			c23.289-6.127,49.892,17.471,51.981,36.664C394.319,300.197,425.554,316.438,449.906,300.007L449.906,300.007z"/>
		<path class="st1" d="M353.998,274.83l7.01,8.502l-10.947-1.302l-5.924,9.303l-2.151-10.819l-10.669-2.761l9.621-5.375
			l-0.675-11.003l8.095,7.478l10.252-4.03L353.998,274.83z"/>
		<path class="st1" d="M448.992,299.084c-10.148,10.089-26.274,15.643-43.137,14.866c-19.336-0.905-37.518-9.905-49.846-24.695
			l-2.008,1.669c12.813,15.352,31.664,24.687,51.732,25.627c17.84,0.824,34.277-4.859,45.097-15.616L448.992,299.084z"/>
	</g>
</g>
</svg>
