<?xml version="1.0" encoding="utf-8"?>
<!-- Generator: Adobe Illustrator 16.0.0, SVG Export Plug-In . SVG Version: 6.00 Build 0)  -->
<!DOCTYPE svg PUBLIC "-//W3C//DTD SVG 1.1//EN" "http://www.w3.org/Graphics/SVG/1.1/DTD/svg11.dtd">
<svg version="1.1" id="圖層_1" xmlns="http://www.w3.org/2000/svg" xmlns:xlink="http://www.w3.org/1999/xlink" x="0px" y="0px"
	 width="900px" height="600px" viewBox="0 0 900 600" enable-background="new 0 0 900 600" xml:space="preserve">
<g>
	<g>
		<g>
			<defs>
				<rect id="SVGID_1_" x="0" width="900" height="600"/>
			</defs>
			<clipPath id="SVGID_2_">
				<use xlink:href="#SVGID_1_"  overflow="visible"/>
			</clipPath>
			<g clip-path="url(#SVGID_2_)">
				<g>
					<path fill="#00247D" d="M0,0v600h902V0H0z"/>
				</g>
				<g>
					<g>
						<g>
							<defs>
								<rect id="SVGID_3_" x="0" width="902" height="600"/>
							</defs>
							<clipPath id="SVGID_4_">
								<use xlink:href="#SVGID_3_"  overflow="visible"/>
							</clipPath>
							<g clip-path="url(#SVGID_4_)">
								<path d="M0,0l902,600 M902,0L0,600"/>
								<polygon fill="#FFFFFF" points="875.166,653.666 450,367.082 26.833,653.666 -26.833,546.334 315.836,300 -26.833,53.666 
									26.833,-53.666 450,232.918 875.166,-53.666 928.832,53.666 584.162,300 928.832,546.334 								"/>
							</g>
						</g>
						<g>
							<g>
								<g>
									<defs>
										<polygon id="SVGID_5_" points="450,300 902,300 902,600 450,300 450,600 0,600 450,300 0,300 0,0 450,300 450,0 902,0 
																					"/>
									</defs>
									<clipPath id="SVGID_6_">
										<use xlink:href="#SVGID_5_"  overflow="visible"/>
									</clipPath>
									<g clip-path="url(#SVGID_6_)">
										<path d="M0,0l902,600 M902,0L0,600"/>
										<polygon fill="#CF142B" points="884.112,635.777 450,344.723 17.889,635.777 -17.888,564.223 360.558,300 -17.888,35.777 
											17.889,-35.777 450,255.279 884.112,-35.777 919.889,35.777 539.443,300 919.889,564.223 										"/>
									</g>
								</g>
								<g>
									<path d="M450,0v600 M0,300h902"/>
									<polygon fill="#FFFFFF" points="540,600 360,600 360,390 0,390 0,210 360,210 360,0 540,0 540,210 902,210 902,390 
										540,390 									"/>
								</g>
								<g>
									<path d="M450,0v600 M0,300h902"/>
									<polygon fill="#CF142B" points="510,600 390,600 390,360 0,360 0,240 390,240 390,0 510,0 510,240 902,240 902,360 
										510,360 									"/>
								</g>
							</g>
						</g>
					</g>
				</g>
			</g>
		</g>
	</g>
</g>
</svg>
