<?xml version="1.0" encoding="utf-8"?>
<!-- Generator: Adobe Illustrator 15.0.0, SVG Export Plug-In . SVG Version: 6.00 Build 0)  -->
<!DOCTYPE svg PUBLIC "-//W3C//DTD SVG 1.1//EN" "http://www.w3.org/Graphics/SVG/1.1/DTD/svg11.dtd">
<svg version="1.1" id="圖層_7" xmlns="http://www.w3.org/2000/svg" xmlns:xlink="http://www.w3.org/1999/xlink" x="0px" y="0px"
	 width="170.079px" height="170.079px" viewBox="0 0 170.079 170.079" enable-background="new 0 0 170.079 170.079"
	 xml:space="preserve">
<path fill="#FFFFFF" d="M153.545,79.239l-18.723-13.25V46.387c0-0.313-0.254-0.567-0.567-0.567h-15.533
	c-0.313,0-0.567,0.254-0.567,0.567v7.806L90.904,34.905c-1.761-1.247-4.123-1.223-5.859,0.059L22.687,81.017
	c-2.222,1.641-2.692,4.771-1.052,6.992c0.98,1.328,2.493,2.03,4.026,2.03c1.032,0,2.073-0.318,2.966-0.979l59.451-43.905
	l59.69,42.245c2.255,1.595,5.375,1.061,6.97-1.192C156.333,83.954,155.799,80.834,153.545,79.239z"/>
<path fill="#FFFFFF" d="M84.799,55.103l-42.143,32.05c0,0.298,0,46.583,0,46.583c0,0.783,0.635,1.417,1.417,1.417h30.083v-24.488
	c0-4.697,3.807-8.504,8.504-8.504h10.992c4.697,0,8.504,3.807,8.504,8.504v24.488h30.416c0.783,0,1.417-0.635,1.417-1.417
	c0,0,0-46.264,0-46.583l-44.362-32.05C88.295,53.769,86.132,53.769,84.799,55.103z"/>
</svg>
