<?xml version="1.0" encoding="utf-8"?>
<!-- Generator: Adobe Illustrator 15.0.0, SVG Export Plug-In . SVG Version: 6.00 Build 0)  -->
<!DOCTYPE svg PUBLIC "-//W3C//DTD SVG 1.1//EN" "http://www.w3.org/Graphics/SVG/1.1/DTD/svg11.dtd">
<svg version="1.1" id="圖層_1" xmlns="http://www.w3.org/2000/svg" xmlns:xlink="http://www.w3.org/1999/xlink" x="0px" y="0px"
	 width="56.693px" height="56.693px" viewBox="0 0 56.693 56.693" enable-background="new 0 0 56.693 56.693" xml:space="preserve">
<path fill="#FFFFFF" d="M28.233,8.643c-1.07,0.671-11.398,7.233-15.781,10.019H6.156c-1.458,0-2.639,1.182-2.639,2.639v11.945
	c0,1.458,1.181,2.639,2.639,2.639h8.189c5.227,3.27,13.252,8.29,13.863,8.685c0.913,0.587,3.75-0.427,3.75-2.02V10.685
	C31.958,9.092,29.595,7.79,28.233,8.643z"/>
<path fill="#FFFFFF" d="M39.487,19.023c0.287,0,0.576-0.099,0.811-0.299l10.124-8.611c0.527-0.449,0.592-1.239,0.144-1.766
	c-0.449-0.527-1.239-0.592-1.767-0.144l-10.124,8.611c-0.526,0.449-0.591,1.239-0.143,1.766
	C38.78,18.873,39.133,19.023,39.487,19.023z"/>
<path fill="#FFFFFF" d="M52.752,25.302h-13.73c-0.692,0-1.253,0.562-1.253,1.253s0.561,1.253,1.253,1.253h13.73
	c0.692,0,1.253-0.562,1.253-1.253S53.444,25.302,52.752,25.302z"/>
<path fill="#FFFFFF" d="M41.405,35.027c-0.496-0.482-1.289-0.471-1.771,0.024c-0.481,0.496-0.471,1.289,0.026,1.771l9.077,8.813
	c0.244,0.235,0.559,0.354,0.873,0.354c0.327,0,0.654-0.128,0.896-0.379c0.482-0.496,0.472-1.289-0.025-1.771L41.405,35.027z"/>
</svg>
