<?xml version="1.0" encoding="utf-8"?>
<!-- Generator: Adobe Illustrator 16.0.0, SVG Export Plug-In . SVG Version: 6.00 Build 0)  -->
<!DOCTYPE svg PUBLIC "-//W3C//DTD SVG 1.1//EN" "http://www.w3.org/Graphics/SVG/1.1/DTD/svg11.dtd">
<svg version="1.1" id="圖層_1" xmlns="http://www.w3.org/2000/svg" xmlns:xlink="http://www.w3.org/1999/xlink" x="0px" y="0px"
	 width="50px" height="50px" viewBox="0 0 50 50" style="enable-background:new 0 0 50 50;" xml:space="preserve">
<style type="text/css">
<![CDATA[
	.st0{fill-rule:evenodd;clip-rule:evenodd;}
	.st1{fill:#040000;}
	.st2{fill:#060001;}
]]>
</style>
<g>
	<path class="st0" d="M11.442,46.289v-7.686H3.669V7.5h43.673v31.1l-26.333,0.057L11.442,46.289z M44.093,35.506V10.598H6.84v24.908
		h7.578l-0.002,5.016l6.708-5.002L44.093,35.506z"/>
	<path class="st0" d="M37.969,18.385c0,1.007,0,1.828,0,2.825c-8.267,0-16.469,0-24.833,0c0-0.895,0-1.768,0-2.825
		C21.327,18.385,29.53,18.385,37.969,18.385z"/>
	<path class="st0" d="M13.059,27.433c0-1.003,0-1.816,0-2.794c6.163,0,12.29,0,18.565,0c0,0.917,0,1.787,0,2.794
		C25.443,27.433,19.385,27.433,13.059,27.433z"/>
</g>
</svg>
